<svg width="1181.9075439453125px" height="177.441259765625px" xmlns="http://www.w3.org/2000/svg" viewBox="-340.9537719726562 -13.720629882812503 1181.9075439453125 177.441259765625" style="background: rgba(0, 0, 0, 0);" preserveAspectRatio="xMidYMid"><defs><linearGradient id="editing-sticker-gradient" x1="0.5" y1="0.2" x2="0.5" y2="0.8"><stop offset="0" stop-color="#00c6ff"></stop><stop offset="1" stop-color="#0495de"></stop></linearGradient><filter id="editing-sticker" x="-100%" y="-100%" width="300%" height="300%"><feMorphology operator="erode" radius="1" in="SourceAlpha" result="alpha-erode"></feMorphology><feConvolveMatrix order="3,3" divisor="1" kernelMatrix="0 1 0 1 1 1 0 1 0" in="alpha-erode" result="alpha-round"></feConvolveMatrix><feMorphology operator="dilate" radius="3.5" in="alpha-round" result="dilate-shadow"></feMorphology><feGaussianBlur in="dilate-shadow" stdDeviation="1.5" result="shadow"></feGaussianBlur><feFlood flood-color="#fff" result="flood-sticker"></feFlood><feComposite operator="in" in="flood-sticker" in2="alpha-round" result="comp-sticker"></feComposite><feMorphology operator="dilate" radius="3" in="comp-sticker" result="morph-sticker"></feMorphology><feConvolveMatrix order="3,3" divisor="1" kernelMatrix="0 1 0 1 1 1 0 1 0" in="morph-sticker" result="sticker"></feConvolveMatrix><feMerge><feMergeNode in="shadow"></feMergeNode><feMergeNode in="sticker"></feMergeNode><feMergeNode in="SourceGraphic"></feMergeNode></feMerge></filter></defs><g filter="url(#editing-sticker)"><g transform="translate(-176.77501106262207, 104.9140625)"><path d="M23.01-1.41L2.67-1.41L2.67-50.17L2.67-50.17Q2.71-50.47 3.27-50.71L3.27-50.71L3.27-50.71Q3.82-50.95 3.93-51.06L3.93-51.06L23.90-51.06L23.90-2.75L23.90-2.75Q23.71-1.97 23.55-1.69L23.55-1.69L23.55-1.69Q23.38-1.41 23.01-1.41L23.01-1.41ZM31.32-5.20L31.32-5.20L31.32-54.77L31.32-54.77Q31.32-56.04 37.11-56.04L37.11-56.04L37.11-56.04Q37.74-56.04 38.91-56.00L38.91-56.00L38.91-56.00Q40.08-55.96 40.52-55.96L40.52-55.96L40.52-55.96Q43.46-55.96 49.26-56.07L49.26-56.07L49.26-56.07Q55.07-56.18 58.04-56.18L58.04-56.18L58.04-56.18Q60.08-56.18 64.11-56.11L64.11-56.11L64.11-56.11Q68.13-56.04 70.36-56.04L70.36-56.04L70.36-56.04Q70.66-56.04 71.25-56.07L71.25-56.07L71.25-56.07Q71.84-56.11 72.14-56.11L72.14-56.11L72.14-56.11Q73.48-56.11 74.00-55.61L74.00-55.61L74.00-55.61Q74.52-55.11 74.52-53.66L74.52-53.66L74.52-40.67L74.52-40.67Q72.36-40.49 70.03-40.43L70.03-40.43L70.03-40.43Q67.69-40.38 64.09-40.34L64.09-40.34L64.09-40.34Q60.49-40.30 59.60-40.30L59.60-40.30L54.48-40.30L54.48-40.30Q54.48-39.60 54.44-38.26L54.44-38.26L54.44-38.26Q54.40-36.92 54.40-36.22L54.40-36.22L54.40-35.70L54.40-35.70Q54.48-35.55 54.48-35.18L54.48-35.18L54.48-35.18Q62.90-35.77 68.73-35.77L68.73-35.77L68.73-35.77Q70.47-35.77 71.83-35.51L71.83-35.51L71.83-35.51Q73.18-35.25 73.18-34.73L73.18-34.73L73.18-22.34L73.18-22.34Q73.18-20.71 72.55-20.15L72.55-20.15L72.55-20.15Q71.92-19.59 70.58-19.59L70.58-19.59L70.58-19.59Q70.29-19.59 69.51-19.67L69.51-19.67L69.51-19.67Q68.73-19.74 68.28-19.74L68.28-19.74L68.28-19.74Q60.75-19.26 54.55-19.15L54.55-19.15L54.55-19.15Q54.55-16.88 54.66-12.32L54.66-12.32L54.66-12.32Q54.77-7.76 54.77-5.49L54.77-5.49L54.77-0.89L54.77-0.89Q54.77 0.19 54.55 0.54L54.55 0.54L54.55 0.54Q54.33 0.89 53.44 1.04L53.44 1.04L53.44 1.04Q49.88 1.04 42.90 1.11L42.90 1.11L42.90 1.11Q35.92 1.19 32.36 1.19L32.36 1.19L32.36 1.19Q32.06 0.74 31.86 0.22L31.86 0.22L31.86 0.22Q31.65-0.30 31.54-0.71L31.54-0.71L31.54-0.71Q31.43-1.11 31.38-1.84L31.38-1.84L31.38-1.84Q31.32-2.56 31.30-2.88L31.30-2.88L31.30-2.88Q31.28-3.19 31.30-4.08L31.30-4.08L31.30-4.08Q31.32-4.97 31.32-5.20ZM132.11 0.15L132.11 0.15L132.11 0.15Q131.29 0.96 128.68 1.11L128.68 1.11L128.68 1.11Q126.06 1.26 122.24 1.04L122.24 1.04L122.24 1.04Q118.42 0.82 118.16 0.82L118.16 0.82L118.16 0.82Q115.63 0.82 114.52 0.74L114.52 0.74L110.81 0.74L110.81 0.74Q109.99 0.48 109.44-1.69L109.44-1.69L109.44-1.69Q108.88-3.86 108.34-7.92L108.34-7.92L108.34-7.92Q107.80-11.99 107.77-12.25L107.77-12.25L107.77-12.25Q107.62-15.92 106.58-17.09L106.58-17.09L106.58-17.09Q105.54-18.26 102.79-18.26L102.79-18.26L101.16-18.26L101.16-0.15L101.16-0.15Q101.09 0.30 100.38 0.59L100.38 0.59L100.38 0.59Q99.68 0.89 98.36 0.98L98.36 0.98L98.36 0.98Q97.04 1.08 96.02 1.09L96.02 1.09L96.02 1.09Q95 1.11 93.33 1.08L93.33 1.08L93.33 1.08Q91.66 1.04 91.29 1.04L91.29 1.04L85.95 1.04L85.95 1.04Q81.42 1.04 79.12 1.11L79.12 1.11L79.12 1.11Q78.60 0.89 78.08 0.59L78.08 0.59L78.08-54.77L78.08-54.77Q78.08-55.81 81.05-55.81L81.05-55.81L113.41-55.81L113.41-55.81Q121.83-55.59 126.23-51.80L126.23-51.80L126.23-51.80Q130.63-48.02 130.63-41.12L130.63-41.12L130.63-41.12Q130.63-32.14 121.57-27.98L121.57-27.98L121.57-27.98Q123.24-27.46 124.58-26.53L124.58-26.53L124.58-26.53Q125.91-25.61 126.80-24.55L126.80-24.55L126.80-24.55Q127.69-23.49 128.36-22.01L128.36-22.01L128.36-22.01Q129.03-20.52 129.40-19.22L129.40-19.22L129.40-19.22Q129.77-17.92 130.05-16.14L130.05-16.14L130.05-16.14Q130.33-14.36 130.44-13.06L130.44-13.06L130.44-13.06Q130.55-11.76 130.72-9.96L130.72-9.96L130.72-9.96Q130.88-8.16 131.00-7.13L131.00-7.13L131.00-3.86L131.00-3.86Q131.11-3.27 131.68-2.19L131.68-2.19L131.68-2.19Q132.26-1.11 132.41-0.59L132.41-0.59L132.41-0.59Q132.41 0.15 132.11 0.15ZM100.94-40.08L100.94-40.08L100.94-40.08Q100.94-37.85 100.97-36.78L100.97-36.78L100.97-36.78Q101.01-35.70 101.38-33.96L101.38-33.96L101.38-33.96Q101.75-32.21 102.50-31.47L102.50-31.47L102.50-31.47Q104.05-31.47 105.45-31.80L105.45-31.80L105.45-31.80Q106.84-32.14 108.14-32.88L108.14-32.88L108.14-32.88Q109.44-33.62 110.20-35.09L110.20-35.09L110.20-35.09Q110.96-36.55 110.96-38.59L110.96-38.59L110.96-38.59Q110.96-39.74 110.55-40.62L110.55-40.62L110.55-40.62Q110.14-41.49 109.36-42.01L109.36-42.01L109.36-42.01Q108.58-42.53 107.82-42.84L107.82-42.84L107.82-42.84Q107.06-43.16 105.97-43.29L105.97-43.29L105.97-43.29Q104.87-43.42 104.24-43.46L104.24-43.46L104.24-43.46Q103.61-43.49 102.72-43.49L102.72-43.49L101.83-43.49L101.83-43.49Q101.27-43.23 101.10-42.45L101.10-42.45L101.10-42.45Q100.94-41.67 100.94-40.08ZM130.63 0L130.63 0L130.63 0Q132.93-8.50 135.71-17.26L135.71-17.26L135.71-17.26Q138.49-26.01 142.63-38.20L142.63-38.20L142.63-38.20Q146.77-50.39 148.29-55.07L148.29-55.07L148.29-55.07Q148.73-55.81 148.88-55.96L148.88-55.96L155.12-55.96L155.12-55.96Q157.31-55.96 161.57-56.04L161.57-56.04L161.57-56.04Q165.84-56.11 168.03-56.11L168.03-56.11L174.27-56.11L174.27-56.11Q174.82-56.11 175.19-56.09L175.19-56.09L175.19-56.09Q175.56-56.07 176.08-56.00L176.08-56.00L176.08-56.00Q176.60-55.92 176.92-55.78L176.92-55.78L176.92-55.78Q177.23-55.63 177.46-55.33L177.46-55.33L177.46-55.33Q177.68-55.03 177.68-54.63L177.68-54.63L194.79-0.41L194.79-0.41Q194.79 0.33 194.25 0.61L194.25 0.61L194.25 0.61Q193.71 0.89 192.23 0.89L192.23 0.89L188.81 0.89L188.81 0.89Q187.33 0.89 184.40 0.93L184.40 0.93L184.40 0.93Q181.46 0.96 179.98 0.96L179.98 0.96L179.98 0.96Q179.54 0.96 178.18 1.02L178.18 1.02L178.18 1.02Q176.83 1.08 175.90 1.06L175.90 1.06L175.90 1.06Q174.97 1.04 173.84 0.95L173.84 0.95L173.84 0.95Q172.71 0.85 172.02 0.54L172.02 0.54L172.02 0.54Q171.33 0.22 171.15-0.30L171.15-0.30L171.15-2.75L171.15-2.75Q170.78-4.60 169.85-6.16L169.85-6.16L169.85-6.16Q168.92-7.72 167.88-7.72L167.88-7.72L155.12-7.72L153.19 0.15L153.19 0.15Q152.78 1.04 149.03 1.04L149.03 1.04L146.06 1.04L146.06 1.04Q144.47 1.04 141.31 1.15L141.31 1.15L141.31 1.15Q138.16 1.26 136.56 1.26L136.56 1.26L135.52 1.26L135.52 1.26Q134.93 1.26 133.65 1.30L133.65 1.30L133.65 1.30Q132.37 1.34 131.66 1.34L131.66 1.34L131.66 1.34Q131.37 1.04 130.63 0ZM159.35-35.40L156.38-22.53L157.42-20.78L159.87-20.78L159.87-20.78Q162.84-20.78 165.30-21.13L165.30-21.13L165.30-21.13Q167.77-21.49 167.77-22.27L167.77-22.27L162.98-43.64L162.98-43.64Q162.32-43.64 161.18-41.12L161.18-41.12L161.18-41.12Q160.05-38.59 159.35-35.40L159.35-35.40ZM271.42-13.88L271.42-13.88L271.42-13.88Q271.42-13.21 271.49-11.82L271.49-11.82L271.49-11.82Q271.57-10.43 271.60-9.17L271.60-9.17L271.60-9.17Q271.64-7.90 271.66-6.36L271.66-6.36L271.66-6.36Q271.68-4.82 271.55-3.58L271.55-3.58L271.55-3.58Q271.42-2.34 271.16-1.24L271.16-1.24L271.16-1.24Q270.90-0.15 270.36 0.45L270.36 0.45L270.36 0.45Q269.82 1.04 269.04 1.04L269.04 1.04L252.12 1.04L252.12 1.04Q250.34-0.33 250.34-9.20L250.34-9.20L250.34-9.20Q250.34-12.43 250.38-16.98L250.38-16.98L250.38-16.98Q250.41-21.52 250.41-23.45L250.41-23.45L250.41-26.05L250.41-26.05Q250.41-26.38 250.36-27.33L250.36-27.33L250.36-27.33Q250.30-28.28 250.34-28.80L250.34-28.80L250.34-28.80Q248.86-23.42 246.70-13.40L246.70-13.40L246.70-13.40Q244.55-3.38 243.73 0L243.73 0L243.73 0Q243.36 1.04 240.32 1.04L240.32 1.04L227.18 1.04L227.18 1.04Q224.77 1.04 224.36-0.22L224.36-0.22L220.80-15.73L220.80-15.73Q220.32-18.11 219.74-20.67L219.74-20.67L219.74-20.67Q219.17-23.23 218.39-26.50L218.39-26.50L218.39-26.50Q217.61-29.76 217.24-31.32L217.24-31.32L217.24-31.32Q216.79-19.45 216.79-13.21L216.79-13.21L216.79-6.68L216.79-6.68Q216.79-2.30 216.87-0.07L216.87-0.07L216.87-0.07Q216.64 0.74 216.05 0.74L216.05 0.74L212.56 0.74L212.56 0.74Q210.37 0.74 206.14 0.78L206.14 0.78L206.14 0.78Q201.91 0.82 199.72 0.82L199.72 0.82L199.72 0.82Q197.72 0.82 197.72 0.15L197.72 0.15L197.72-54.92L197.72-54.92Q197.72-55.26 197.89-55.50L197.89-55.50L197.89-55.50Q198.05-55.74 198.41-55.87L198.41-55.87L198.41-55.87Q198.76-56.00 199.09-56.07L199.09-56.07L199.09-56.07Q199.43-56.15 199.95-56.17L199.95-56.17L199.95-56.17Q200.46-56.18 200.80-56.20L200.80-56.20L200.80-56.20Q201.13-56.22 201.65-56.20L201.65-56.20L201.65-56.20Q202.17-56.18 202.32-56.18L202.32-56.18L206.70-56.18L206.70-56.18Q217.28-56.18 221.60-55.89L221.60-55.89L221.60-55.89Q225.92-55.59 228.22-55.59L228.22-55.59L228.22-55.59Q229.11-50.62 231.04-40.82L231.04-40.82L233.86-26.05L239.80-56.04L239.80-56.04Q239.80-56.04 240.10-55.96L240.10-55.96L240.10-55.96Q240.39-55.89 240.54-55.89L240.54-55.89L240.54-55.89Q244.51-55.89 252.27-56.00L252.27-56.00L252.27-56.00Q260.03-56.11 264.00-56.11L264.00-56.11L269.49-56.11L269.49-56.11Q270.53-56.00 270.53-54.03L270.53-54.03L270.53-54.03Q271.34-18.07 271.42-13.88ZM277.95-1.34L277.95-1.34L277.95-2.75L277.95-2.75Q277.95-9.09 278.10-21.49L278.10-21.49L278.10-21.49Q278.25-33.88 278.25-40.23L278.25-40.23L278.25-55.59L321.44-55.59L321.44-43.42L321.44-43.42Q321.44-43.31 321.44-42.86L321.44-42.86L321.44-42.86Q321.44-42.42 321.44-42.27L321.44-42.27L321.44-42.27Q321.44-42.12 321.40-41.73L321.40-41.73L321.40-41.73Q321.37-41.34 321.27-41.19L321.27-41.19L321.27-41.19Q321.18-41.04 321.01-40.76L321.01-40.76L321.01-40.76Q320.85-40.49 320.63-40.38L320.63-40.38L320.63-40.38Q320.40-40.26 320.03-40.17L320.03-40.17L320.03-40.17Q319.66-40.08 319.21-40.08L319.21-40.08L318.18-40.08L318.18-40.08Q308.56-40.08 300.66-40.38L300.66-40.38L300.66-40.38Q300.59-39.78 300.42-38.54L300.42-38.54L300.42-38.54Q300.25-37.29 300.16-36.35L300.16-36.35L300.16-36.35Q300.07-35.40 300.07-34.51L300.07-34.51L317.73-34.51L317.73-34.51Q318.84-34.51 319.21-34.21L319.21-34.21L319.21-34.21Q319.59-33.92 319.59-33.25L319.59-33.25L319.59-33.25Q319.59-33.06 319.55-32.66L319.55-32.66L319.55-32.66Q319.51-32.25 319.51-32.06L319.51-32.06L319.51-32.06Q319.51-30.28 319.62-26.79L319.62-26.79L319.62-26.79Q319.73-23.30 319.73-21.52L319.73-21.52L319.73-21.52Q319.62-20.78 319.14-20.78L319.14-20.78L319.14-20.78Q318.92-20.78 318.77-20.93L318.77-20.93L318.77-20.93Q307.04-20.34 301.40-20.34L301.40-20.34L300.44-20.34L300.44-14.99L300.44-14.99Q303.74-14.99 309.99-15.29L309.99-15.29L309.99-15.29Q316.25-15.59 319.36-15.59L319.36-15.59L319.36-15.59Q321.81-15.59 322.18-14.55L322.18-14.55L322.18-11.73L322.18-11.73Q322.18-9.95 322.26-6.46L322.26-6.46L322.26-6.46Q322.33-2.97 322.33-1.19L322.33-1.19L322.33-1.19Q322.33 0.67 320.85 0.67L320.85 0.67L320.85 0.67Q318.92 0.67 314.91 0.63L314.91 0.63L314.91 0.63Q310.90 0.59 308.82 0.59L308.82 0.59L308.82 0.59Q303.48 0.59 293.54 0.87L293.54 0.87L293.54 0.87Q283.59 1.15 279.14 1.19L279.14 1.19L278.10 0L278.10 0Q277.95-1.04 277.95-1.34ZM347.42-27.76L347.42-27.76L347.42-27.76Q347.42-32.88 348.57-37.15L348.57-37.15L348.57-37.15Q349.72-41.41 351.63-44.38L351.63-44.38L351.63-44.38Q353.54-47.35 356.23-49.65L356.23-49.65L356.23-49.65Q358.92-51.95 361.78-53.34L361.78-53.34L361.78-53.34Q364.64-54.74 367.92-55.63L367.92-55.63L367.92-55.63Q371.21-56.52 374.06-56.83L374.06-56.83L374.06-56.83Q376.92-57.15 379.85-57.15L379.85-57.15L379.85-57.15Q382.00-57.15 384.06-56.96L384.06-56.96L384.06-56.96Q386.12-56.78 388.70-56.31L388.70-56.31L388.70-56.31Q391.28-55.85 393.53-54.88L393.53-54.88L393.53-54.88Q395.77-53.92 397.83-52.53L397.83-52.53L397.83-52.53Q399.89-51.14 401.41-48.93L401.41-48.93L401.41-48.93Q402.93-46.72 403.60-43.94L403.60-43.94L403.60-43.94Q403.79-42.86 404.34-37.85L404.34-37.85L404.34-37.85Q404.20-36.74 401.97-36.74L401.97-36.74L401.97-36.74Q398.78-36.74 392.69-36.89L392.69-36.89L392.69-36.89Q386.61-37.04 383.56-37.04L383.56-37.04L383.56-37.04Q383.12-37.18 382.86-37.63L382.86-37.63L382.86-37.63Q382.60-38.07 382.50-38.59L382.50-38.59L382.50-38.59Q382.41-39.11 382.21-39.71L382.21-39.71L382.21-39.71Q382.00-40.30 381.69-40.76L381.69-40.76L381.69-40.76Q381.37-41.23 380.58-41.54L380.58-41.54L380.58-41.54Q379.78-41.86 378.59-41.86L378.59-41.86L378.59-41.86Q377.03-41.86 375.81-41.32L375.81-41.32L375.81-41.32Q374.58-40.78 373.80-40.00L373.80-40.00L373.80-40.00Q373.02-39.22 372.47-37.89L372.47-37.89L372.47-37.89Q371.91-36.55 371.63-35.46L371.63-35.46L371.63-35.46Q371.35-34.36 371.21-32.67L371.21-32.67L371.21-32.67Q371.06-30.99 371.04-30.02L371.04-30.02L371.04-30.02Q371.02-29.06 371.02-27.46L371.02-27.46L371.02-27.46Q371.02-26.98 371.06-26.27L371.06-26.27L371.06-26.27Q371.09-25.57 371.09-25.31L371.09-25.31L371.09-24.20L371.09-24.20Q371.09-23.01 371.13-22.23L371.13-22.23L371.13-22.23Q371.17-21.45 371.33-20.22L371.33-20.22L371.33-20.22Q371.50-19 371.80-18.17L371.80-18.17L371.80-18.17Q372.10-17.33 372.67-16.38L372.67-16.38L372.67-16.38Q373.25-15.44 374.08-14.86L374.08-14.86L374.08-14.86Q374.92-14.29 376.18-13.90L376.18-13.90L376.18-13.90Q377.44-13.51 379.04-13.51L379.04-13.51L379.04-13.51Q383.15-13.51 385.79-14.32L385.79-14.32L385.79-18.85L384.16-18.85L384.16-18.78L381.48-18.78L381.48-18.78Q381.19-18.78 380.43-18.74L380.43-18.74L380.43-18.74Q379.67-18.70 379.18-18.70L379.18-18.70L377.85-20.19L377.85-30.43L377.85-30.43Q377.85-31.39 379.18-32.51L379.18-32.51L381.86-32.51L381.86-32.51Q384.64-32.51 388.61-32.43L388.61-32.43L388.61-32.43Q392.58-32.36 394.70-32.36L394.70-32.36L397.66-32.36L397.66-32.36Q399.82-32.36 401.02-32.32L401.02-32.32L401.02-32.32Q402.23-32.29 403.71-31.97L403.71-31.97L403.71-31.97Q405.20-31.65 405.68-31.02L405.68-31.02L405.68-31.02Q405.68-26.16 405.46-16.85L405.46-16.85L405.46-16.85Q405.23-7.53 405.23-3.34L405.23-3.34L405.23-3.34Q405.23-3.23 405.27-2.99L405.27-2.99L405.27-2.99Q405.31-2.75 405.31-2.60L405.31-2.60L405.31-1.78L405.31-1.78Q404.05-0.30 397.07 0.82L397.07 0.82L397.07 0.82Q390.09 1.93 385.34 1.93L385.34 1.93L384.38 1.93L384.38 1.93Q383.34 1.93 381.30 2.08L381.30 2.08L381.30 2.08Q379.26 2.23 378.22 2.23L378.22 2.23L378.22 2.23Q363.26 2.23 355.34-5.77L355.34-5.77L355.34-5.77Q347.42-13.77 347.42-27.76ZM411.62-1.34L411.62-1.34L411.62-2.75L411.62-2.75Q411.62-9.09 411.77-21.49L411.77-21.49L411.77-21.49Q411.91-33.88 411.91-40.23L411.91-40.23L411.91-55.59L455.11-55.59L455.11-43.42L455.11-43.42Q455.11-43.31 455.11-42.86L455.11-42.86L455.11-42.86Q455.11-42.42 455.11-42.27L455.11-42.27L455.11-42.27Q455.11-42.12 455.07-41.73L455.07-41.73L455.07-41.73Q455.04-41.34 454.94-41.19L454.94-41.19L454.94-41.19Q454.85-41.04 454.68-40.76L454.68-40.76L454.68-40.76Q454.52-40.49 454.29-40.38L454.29-40.38L454.29-40.38Q454.07-40.26 453.70-40.17L453.70-40.17L453.70-40.17Q453.33-40.08 452.88-40.08L452.88-40.08L451.84-40.08L451.84-40.08Q442.23-40.08 434.33-40.38L434.33-40.38L434.33-40.38Q434.25-39.78 434.09-38.54L434.09-38.54L434.09-38.54Q433.92-37.29 433.83-36.35L433.83-36.35L433.83-36.35Q433.73-35.40 433.73-34.51L433.73-34.51L451.40-34.51L451.40-34.51Q452.51-34.51 452.88-34.21L452.88-34.21L452.88-34.21Q453.25-33.92 453.25-33.25L453.25-33.25L453.25-33.25Q453.25-33.06 453.22-32.66L453.22-32.66L453.22-32.66Q453.18-32.25 453.18-32.06L453.18-32.06L453.18-32.06Q453.18-30.28 453.29-26.79L453.29-26.79L453.29-26.79Q453.40-23.30 453.40-21.52L453.40-21.52L453.40-21.52Q453.29-20.78 452.81-20.78L452.81-20.78L452.81-20.78Q452.59-20.78 452.44-20.93L452.44-20.93L452.44-20.93Q440.71-20.34 435.07-20.34L435.07-20.34L434.11-20.34L434.11-14.99L434.11-14.99Q437.41-14.99 443.66-15.29L443.66-15.29L443.66-15.29Q449.91-15.59 453.03-15.59L453.03-15.59L453.03-15.59Q455.48-15.59 455.85-14.55L455.85-14.55L455.85-11.73L455.85-11.73Q455.85-9.95 455.93-6.46L455.93-6.46L455.93-6.46Q456-2.97 456-1.19L456-1.19L456-1.19Q456 0.67 454.52 0.67L454.52 0.67L454.52 0.67Q452.59 0.67 448.58 0.63L448.58 0.63L448.58 0.63Q444.57 0.59 442.49 0.59L442.49 0.59L442.49 0.59Q437.15 0.59 427.20 0.87L427.20 0.87L427.20 0.87Q417.26 1.15 412.80 1.19L412.80 1.19L411.77 0L411.77 0Q411.62-1.04 411.62-1.34ZM461.27 1.04L459.64 0.15L459.64-16.63L459.64-16.63Q459.56-25.83 460.23-51.73L460.23-51.73L460.23-54.77L460.23-54.77Q460.23-55.59 460.53-55.74L460.53-55.74L486.06-55.74L486.06-55.74Q486.43-55.74 487.56-52.92L487.56-52.92L487.56-52.92Q488.69-50.10 490.31-45.66L490.31-45.66L490.31-45.66Q491.92-41.23 492.59-39.56L492.59-39.56L497.79-25.98L497.79-40.38L497.79-40.38Q497.79-42.23 497.88-47.18L497.88-47.18L497.88-47.18Q497.97-52.14 497.93-54.92L497.93-54.92L497.93-54.92Q497.93-55.96 503.87-55.96L503.87-55.96L503.87-55.96Q505.73-55.96 508.96-55.89L508.96-55.89L508.96-55.89Q512.18-55.81 512.93-55.81L512.93-55.81L515.75-55.81L515.75-55.81Q516.34-55.81 516.34-55.59L516.34-55.59L516.34-55.59Q516.56-45.27 516.56-26.05L516.56-26.05L516.56-0.30L516.56-0.30Q516.30 0.67 514.19 0.67L514.19 0.67L513.22 0.67L513.22 0.67Q511.29 0.67 507.54 0.74L507.54 0.74L507.54 0.74Q503.80 0.82 501.87 0.82L501.87 0.82L490.96 0.82L490.96 0.82Q490.44 0.63 488.80-3.86L488.80-3.86L488.80-3.86Q487.06-8.72 483.61-17.92L483.61-17.92L483.61-17.92Q480.16-27.13 479.75-28.20L479.75-28.20L479.75-28.20Q479.75-26.01 479.71-21.67L479.71-21.67L479.71-21.67Q479.68-17.33 479.68-15.14L479.68-15.14L479.68-15.14Q479.68-13.51 479.75-10.24L479.75-10.24L479.75-10.24Q479.82-6.98 479.82-5.34L479.82-5.34L479.82-0.67L479.82-0.67Q479.82 1.04 478.34 1.04L478.34 1.04L461.27 1.04ZM516.34-55.52L516.34-55.66L516.34-55.52ZM524.13-1.34L524.13-1.34L524.13-2.75L524.13-2.75Q524.13-9.09 524.28-21.49L524.28-21.49L524.28-21.49Q524.43-33.88 524.43-40.23L524.43-40.23L524.43-55.59L567.63-55.59L567.63-43.42L567.63-43.42Q567.63-43.31 567.63-42.86L567.63-42.86L567.63-42.86Q567.63-42.42 567.63-42.27L567.63-42.27L567.63-42.27Q567.63-42.12 567.59-41.73L567.59-41.73L567.59-41.73Q567.55-41.34 567.46-41.19L567.46-41.19L567.46-41.19Q567.37-41.04 567.20-40.76L567.20-40.76L567.20-40.76Q567.03-40.49 566.81-40.38L566.81-40.38L566.81-40.38Q566.59-40.26 566.21-40.17L566.21-40.17L566.21-40.17Q565.84-40.08 565.40-40.08L565.40-40.08L564.36-40.08L564.36-40.08Q554.75-40.08 546.84-40.38L546.84-40.38L546.84-40.38Q546.77-39.78 546.60-38.54L546.60-38.54L546.60-38.54Q546.44-37.29 546.34-36.35L546.34-36.35L546.34-36.35Q546.25-35.40 546.25-34.51L546.25-34.51L563.91-34.51L563.91-34.51Q565.03-34.51 565.40-34.21L565.40-34.21L565.40-34.21Q565.77-33.92 565.77-33.25L565.77-33.25L565.77-33.25Q565.77-33.06 565.73-32.66L565.73-32.66L565.73-32.66Q565.70-32.25 565.70-32.06L565.70-32.06L565.70-32.06Q565.70-30.28 565.81-26.79L565.81-26.79L565.81-26.79Q565.92-23.30 565.92-21.52L565.92-21.52L565.92-21.52Q565.81-20.78 565.32-20.78L565.32-20.78L565.32-20.78Q565.10-20.78 564.95-20.93L564.95-20.93L564.95-20.93Q553.23-20.34 547.59-20.34L547.59-20.34L546.62-20.34L546.62-14.99L546.62-14.99Q549.92-14.99 556.18-15.29L556.18-15.29L556.18-15.29Q562.43-15.59 565.55-15.59L565.55-15.59L565.55-15.59Q568.00-15.59 568.37-14.55L568.37-14.55L568.37-11.73L568.37-11.73Q568.37-9.95 568.44-6.46L568.44-6.46L568.44-6.46Q568.52-2.97 568.52-1.19L568.52-1.19L568.52-1.19Q568.52 0.67 567.03 0.67L567.03 0.67L567.03 0.67Q565.10 0.67 561.09 0.63L561.09 0.63L561.09 0.63Q557.09 0.59 555.01 0.59L555.01 0.59L555.01 0.59Q549.66 0.59 539.72 0.87L539.72 0.87L539.72 0.87Q529.77 1.15 525.32 1.19L525.32 1.19L524.28 0L524.28 0Q524.13-1.04 524.13-1.34ZM626.78 0.15L626.78 0.15L626.78 0.15Q625.96 0.96 623.34 1.11L623.34 1.11L623.34 1.11Q620.73 1.26 616.91 1.04L616.91 1.04L616.91 1.04Q613.08 0.82 612.82 0.82L612.82 0.82L612.82 0.82Q610.30 0.82 609.19 0.74L609.19 0.74L605.48 0.74L605.48 0.74Q604.66 0.48 604.10-1.69L604.10-1.69L604.10-1.69Q603.55-3.86 603.01-7.92L603.01-7.92L603.01-7.92Q602.47-11.99 602.43-12.25L602.43-12.25L602.43-12.25Q602.29-15.92 601.25-17.09L601.25-17.09L601.25-17.09Q600.21-18.26 597.46-18.26L597.46-18.26L595.83-18.26L595.83-0.15L595.83-0.15Q595.75 0.30 595.05 0.59L595.05 0.59L595.05 0.59Q594.34 0.89 593.03 0.98L593.03 0.98L593.03 0.98Q591.71 1.08 590.69 1.09L590.69 1.09L590.69 1.09Q589.67 1.11 588.00 1.08L588.00 1.08L588.00 1.08Q586.33 1.04 585.96 1.04L585.96 1.04L580.61 1.04L580.61 1.04Q576.09 1.04 573.79 1.11L573.79 1.11L573.79 1.11Q573.27 0.89 572.75 0.59L572.75 0.59L572.75-54.77L572.75-54.77Q572.75-55.81 575.71-55.81L575.71-55.81L608.07-55.81L608.07-55.81Q616.50-55.59 620.90-51.80L620.90-51.80L620.90-51.80Q625.29-48.02 625.29-41.12L625.29-41.12L625.29-41.12Q625.29-32.14 616.24-27.98L616.24-27.98L616.24-27.98Q617.91-27.46 619.24-26.53L619.24-26.53L619.24-26.53Q620.58-25.61 621.47-24.55L621.47-24.55L621.47-24.55Q622.36-23.49 623.03-22.01L623.03-22.01L623.03-22.01Q623.70-20.52 624.07-19.22L624.07-19.22L624.07-19.22Q624.44-17.92 624.72-16.14L624.72-16.14L624.72-16.14Q625.00-14.36 625.11-13.06L625.11-13.06L625.11-13.06Q625.22-11.76 625.39-9.96L625.39-9.96L625.39-9.96Q625.55-8.16 625.66-7.13L625.66-7.13L625.66-3.86L625.66-3.86Q625.78-3.27 626.35-2.19L626.35-2.19L626.35-2.19Q626.93-1.11 627.07-0.59L627.07-0.59L627.07-0.59Q627.07 0.15 626.78 0.15ZM595.61-40.08L595.61-40.08L595.61-40.08Q595.61-37.85 595.64-36.78L595.64-36.78L595.64-36.78Q595.68-35.70 596.05-33.96L596.05-33.96L596.05-33.96Q596.42-32.21 597.16-31.47L597.16-31.47L597.16-31.47Q598.72-31.47 600.11-31.80L600.11-31.80L600.11-31.80Q601.51-32.14 602.80-32.88L602.80-32.88L602.80-32.88Q604.10-33.62 604.86-35.09L604.86-35.09L604.86-35.09Q605.63-36.55 605.63-38.59L605.63-38.59L605.63-38.59Q605.63-39.74 605.22-40.62L605.22-40.62L605.22-40.62Q604.81-41.49 604.03-42.01L604.03-42.01L604.03-42.01Q603.25-42.53 602.49-42.84L602.49-42.84L602.49-42.84Q601.73-43.16 600.63-43.29L600.63-43.29L600.63-43.29Q599.54-43.42 598.91-43.46L598.91-43.46L598.91-43.46Q598.28-43.49 597.39-43.49L597.39-43.49L596.50-43.49L596.50-43.49Q595.94-43.23 595.77-42.45L595.77-42.45L595.77-42.45Q595.61-41.67 595.61-40.08ZM625.29 0L625.29 0L625.29 0Q627.59-8.50 630.38-17.26L630.38-17.26L630.38-17.26Q633.16-26.01 637.30-38.20L637.30-38.20L637.30-38.20Q641.44-50.39 642.96-55.07L642.96-55.07L642.96-55.07Q643.40-55.81 643.55-55.96L643.55-55.96L649.79-55.96L649.79-55.96Q651.97-55.96 656.24-56.04L656.24-56.04L656.24-56.04Q660.51-56.11 662.70-56.11L662.70-56.11L668.93-56.11L668.93-56.11Q669.49-56.11 669.86-56.09L669.86-56.09L669.86-56.09Q670.23-56.07 670.75-56.00L670.75-56.00L670.75-56.00Q671.27-55.92 671.59-55.78L671.59-55.78L671.59-55.78Q671.90-55.63 672.13-55.33L672.13-55.33L672.13-55.33Q672.35-55.03 672.35-54.63L672.35-54.63L689.46-0.41L689.46-0.41Q689.46 0.33 688.92 0.61L688.92 0.61L688.92 0.61Q688.38 0.89 686.89 0.89L686.89 0.89L683.48 0.89L683.48 0.89Q682.00 0.89 679.06 0.93L679.06 0.93L679.06 0.93Q676.13 0.96 674.65 0.96L674.65 0.96L674.65 0.96Q674.20 0.96 672.85 1.02L672.85 1.02L672.85 1.02Q671.49 1.08 670.57 1.06L670.57 1.06L670.57 1.06Q669.64 1.04 668.51 0.95L668.51 0.95L668.51 0.95Q667.38 0.85 666.69 0.54L666.69 0.54L666.69 0.54Q666.00 0.22 665.82-0.30L665.82-0.30L665.82-2.75L665.82-2.75Q665.45-4.60 664.52-6.16L664.52-6.16L664.52-6.16Q663.59-7.72 662.55-7.72L662.55-7.72L649.79-7.72L647.86 0.15L647.86 0.15Q647.45 1.04 643.70 1.04L643.70 1.04L640.73 1.04L640.73 1.04Q639.13 1.04 635.98 1.15L635.98 1.15L635.98 1.15Q632.83 1.26 631.23 1.26L631.23 1.26L630.19 1.26L630.19 1.26Q629.60 1.26 628.32 1.30L628.32 1.30L628.32 1.30Q627.04 1.34 626.33 1.34L626.33 1.34L626.33 1.34Q626.04 1.04 625.29 0ZM654.02-35.40L651.05-22.53L652.09-20.78L654.54-20.78L654.54-20.78Q657.50-20.78 659.97-21.13L659.97-21.13L659.97-21.13Q662.44-21.49 662.44-22.27L662.44-22.27L657.65-43.64L657.65-43.64Q656.98-43.64 655.85-41.12L655.85-41.12L655.85-41.12Q654.72-38.59 654.02-35.40L654.02-35.40ZM683.11-44.46L683.11-44.46L683.11-44.46Q683.11-45.13 683.18-46.44L683.18-46.44L683.18-46.44Q683.26-47.76 683.26-48.24L683.26-48.24L683.26-48.24Q683.26-48.43 683.18-49.58L683.18-49.58L683.18-49.58Q683.11-50.73 683.11-51.58L683.11-51.58L683.11-51.58Q683.11-55.52 683.85-55.52L683.85-55.52L683.85-55.52Q684.15-55.52 684.37-55.44L684.37-55.44L684.37-55.44Q692.13-55.44 707.36-55.63L707.36-55.63L707.36-55.63Q722.59-55.81 730.16-55.81L730.16-55.81L730.16-55.81Q732.06-55.81 732.56-55.48L732.56-55.48L732.56-55.48Q733.06-55.14 733.06-54.18L733.06-54.18L733.06-53.14L733.06-53.14Q733.06-51.21 733.10-47.44L733.10-47.44L733.10-47.44Q733.13-43.68 733.13-41.71L733.13-41.71L733.13-41.71Q733.13-39.78 732.09-39.78L732.09-39.78L732.09-39.78Q730.02-39.78 725.90-39.86L725.90-39.86L725.90-39.86Q721.78-39.93 719.70-39.93L719.70-39.93L719.70-0.15L719.70-0.15Q719.44 0.96 718.44 1.04L718.44 1.04L718.44 1.04Q717.14 1.04 714.65 1.00L714.65 1.00L714.65 1.00Q712.17 0.96 710.87 0.96L710.87 0.96L710.87 0.96Q710.79 0.96 710.72 1.04L710.72 1.04L710.72 1.04Q709.09 1.04 706.14 1.00L706.14 1.00L706.14 1.00Q703.19 0.96 701.74 0.96L701.74 0.96L699.51 0.96L699.51 0.96Q698.77 1.04 697.36 1.04L697.36 1.04L695.88-0.74L695.88-0.74Q695.88-6.38 696.25-17.52L696.25-17.52L696.25-17.52Q696.62-28.65 696.62-34.29L696.62-34.29L696.62-34.29Q696.62-34.55 696.60-35.14L696.60-35.14L696.60-35.14Q696.58-35.74 696.58-36.11L696.58-36.11L696.58-36.11Q696.58-36.48 696.52-37.04L696.52-37.04L696.52-37.04Q696.47-37.59 696.34-37.94L696.34-37.94L696.34-37.94Q696.21-38.30 696.02-38.65L696.02-38.65L696.02-38.65Q695.84-39.00 695.52-39.17L695.52-39.17L695.52-39.17Q695.21-39.34 694.76-39.34L694.76-39.34L684.15-39.34L684.15-39.34Q683.11-39.63 683.11-44.46ZM732.87-27.91L732.87-27.91L732.87-31.99L732.87-31.99Q733.24-37.18 735.14-41.47L735.14-41.47L735.14-41.47Q737.03-45.76 739.94-48.69L739.94-48.69L739.94-48.69Q742.86-51.62 746.68-53.64L746.68-53.64L746.68-53.64Q750.50-55.66 754.67-56.59L754.67-56.59L754.67-56.59Q758.85-57.52 763.30-57.52L763.30-57.52L763.30-57.52Q765.75-57.52 768.41-57.11L768.41-57.11L768.41-57.11Q771.06-56.70 774.03-55.81L774.03-55.81L774.03-55.81Q777.00-54.92 779.72-53.20L779.72-53.20L779.72-53.20Q782.45-51.47 784.23-49.13L784.23-49.13L784.23-49.13Q787.91-44.64 789.56-39.73L789.56-39.73L789.56-39.73Q791.21-34.81 791.21-28.80L791.21-28.80L791.21-28.80Q791.32-16.25 785.72-8.61L785.72-8.61L784.08-6.38L784.08-6.38Q781.93-3.41 777.92-1.43L777.92-1.43L777.92-1.43Q773.92 0.56 769.91 1.32L769.91 1.32L769.91 1.32Q765.90 2.08 761.82 2.08L761.82 2.08L761.82 2.08Q757.03 2.08 752.99 1.11L752.99 1.11L752.99 1.11Q748.94 0.15 746.01-1.48L746.01-1.48L746.01-1.48Q743.08-3.12 740.78-5.46L740.78-5.46L740.78-5.46Q738.48-7.79 737.01-10.39L737.01-10.39L737.01-10.39Q735.54-12.99 734.60-16.03L734.60-16.03L734.60-16.03Q733.65-19.07 733.26-21.97L733.26-21.97L733.26-21.97Q732.87-24.86 732.87-27.91ZM762.41-42.60L762.41-42.60L762.41-42.60Q760.89-42.60 759.68-41.90L759.68-41.90L759.68-41.90Q758.48-41.19 757.72-40.19L757.72-40.19L757.72-40.19Q756.96-39.19 756.40-37.50L756.40-37.50L756.40-37.50Q755.84-35.81 755.58-34.46L755.58-34.46L755.58-34.46Q755.32-33.10 755.18-31.04L755.18-31.04L755.18-31.04Q755.03-28.98 755.01-27.85L755.01-27.85L755.01-27.85Q754.99-26.72 754.99-24.94L754.99-24.94L754.99-24.94Q754.99-23.23 755.12-21.69L755.12-21.69L755.12-21.69Q755.25-20.15 755.68-18.42L755.68-18.42L755.68-18.42Q756.10-16.70 756.79-15.42L756.79-15.42L756.79-15.42Q757.48-14.14 758.68-13.27L758.68-13.27L758.68-13.27Q759.89-12.39 761.45-12.32L761.45-12.32L761.45-12.32Q763.08-12.32 764.34-12.86L764.34-12.86L764.34-12.86Q765.60-13.40 766.46-14.23L766.46-14.23L766.46-14.23Q767.31-15.07 767.90-16.48L767.90-16.48L767.90-16.48Q768.50-17.89 768.81-19.19L768.81-19.19L768.81-19.19Q769.13-20.48 769.30-22.41L769.30-22.41L769.30-22.41Q769.46-24.34 769.50-25.74L769.50-25.74L769.50-25.74Q769.54-27.13 769.54-29.24L769.54-29.24L769.54-29.24Q769.54-30.80 769.44-32.14L769.44-32.14L769.44-32.14Q769.35-33.47 769.13-35.11L769.13-35.11L769.13-35.11Q768.91-36.74 768.39-37.98L768.39-37.98L768.39-37.98Q767.87-39.22 767.13-40.32L767.13-40.32L767.13-40.32Q766.38-41.41 765.18-42.01L765.18-42.01L765.18-42.01Q763.97-42.60 762.41-42.60ZM850.58 0.15L850.58 0.15L850.58 0.15Q849.77 0.96 847.15 1.11L847.15 1.11L847.15 1.11Q844.54 1.26 840.71 1.04L840.71 1.04L840.71 1.04Q836.89 0.82 836.63 0.82L836.63 0.82L836.63 0.82Q834.11 0.82 832.99 0.74L832.99 0.74L829.28 0.74L829.28 0.74Q828.47 0.48 827.91-1.69L827.91-1.69L827.91-1.69Q827.35-3.86 826.82-7.92L826.82-7.92L826.82-7.92Q826.28-11.99 826.24-12.25L826.24-12.25L826.24-12.25Q826.09-15.92 825.05-17.09L825.05-17.09L825.05-17.09Q824.01-18.26 821.27-18.26L821.27-18.26L819.63-18.26L819.63-0.15L819.63-0.15Q819.56 0.30 818.86 0.59L818.86 0.59L818.86 0.59Q818.15 0.89 816.83 0.98L816.83 0.98L816.83 0.98Q815.52 1.08 814.50 1.09L814.50 1.09L814.50 1.09Q813.47 1.11 811.80 1.08L811.80 1.08L811.80 1.08Q810.13 1.04 809.76 1.04L809.76 1.04L804.42 1.04L804.42 1.04Q799.89 1.04 797.59 1.11L797.59 1.11L797.59 1.11Q797.07 0.89 796.55 0.59L796.55 0.59L796.55-54.77L796.55-54.77Q796.55-55.81 799.52-55.81L799.52-55.81L831.88-55.81L831.88-55.81Q840.30-55.59 844.70-51.80L844.70-51.80L844.70-51.80Q849.10-48.02 849.10-41.12L849.10-41.12L849.10-41.12Q849.10-32.14 840.04-27.98L840.04-27.98L840.04-27.98Q841.71-27.46 843.05-26.53L843.05-26.53L843.05-26.53Q844.39-25.61 845.28-24.55L845.28-24.55L845.28-24.55Q846.17-23.49 846.84-22.01L846.84-22.01L846.84-22.01Q847.50-20.52 847.88-19.22L847.88-19.22L847.88-19.22Q848.25-17.92 848.52-16.14L848.52-16.14L848.52-16.14Q848.80-14.36 848.91-13.06L848.91-13.06L848.91-13.06Q849.03-11.76 849.19-9.96L849.19-9.96L849.19-9.96Q849.36-8.16 849.47-7.13L849.47-7.13L849.47-3.86L849.47-3.86Q849.58-3.27 850.16-2.19L850.16-2.19L850.16-2.19Q850.73-1.11 850.88-0.59L850.88-0.59L850.88-0.59Q850.88 0.15 850.58 0.15ZM819.41-40.08L819.41-40.08L819.41-40.08Q819.41-37.85 819.45-36.78L819.45-36.78L819.45-36.78Q819.49-35.70 819.86-33.96L819.86-33.96L819.86-33.96Q820.23-32.21 820.97-31.47L820.97-31.47L820.97-31.47Q822.53-31.47 823.92-31.80L823.92-31.80L823.92-31.80Q825.31-32.14 826.61-32.88L826.61-32.88L826.61-32.88Q827.91-33.62 828.67-35.09L828.67-35.09L828.67-35.09Q829.43-36.55 829.43-38.59L829.43-38.59L829.43-38.59Q829.43-39.74 829.02-40.62L829.02-40.62L829.02-40.62Q828.62-41.49 827.84-42.01L827.84-42.01L827.84-42.01Q827.06-42.53 826.30-42.84L826.30-42.84L826.30-42.84Q825.54-43.16 824.44-43.29L824.44-43.29L824.44-43.29Q823.35-43.42 822.71-43.46L822.71-43.46L822.71-43.46Q822.08-43.49 821.19-43.49L821.19-43.49L820.30-43.49L820.30-43.49Q819.75-43.23 819.58-42.45L819.58-42.45L819.58-42.45Q819.41-41.67 819.41-40.08Z" fill="url(#editing-sticker-gradient)" stroke="#202021" stroke-width="2"></path></g></g><style>text {
  font-size: 64px;
  font-family: Arial Black;
  dominant-baseline: central;
  text-anchor: middle;
}</style></svg>